<svg xmlns="http://www.w3.org/2000/svg" viewBox="0 0 120 120">
  <defs>
    <linearGradient id="g1" x1="0" x2="1" y1="0" y2="1">
      <stop offset="0%" stop-color="#7c3aed"/>
      <stop offset="100%" stop-color="#4f46e5"/>
    </linearGradient>
    <linearGradient id="g2" x1="0" x2="1" y1="0" y2="1">
      <stop offset="0%" stop-color="#2dd4bf"/>
      <stop offset="100%" stop-color="#06b6d4"/>
    </linearGradient>
  </defs>
  <rect width="120" height="120" rx="24" fill="url(#g1)" />
  <circle cx="60" cy="52" r="34" fill="url(#g2)" opacity="0.95" />
  <!-- Book icon -->
  <g transform="translate(34,36) scale(0.9)" fill="#ffffff">
    <path d="M6 2c-.55 0-1 .45-1 1v46c0 .55.45 1 1 1 6.5 0 18-3.4 23-6.2V3c-5 2.7-16.5 5-23 5zM34 2c-6.5 0-18 2.3-23 5v40.8C18 48.6 29.5 52 36 52c.55 0 1-.45 1-1V3c0-.55-.45-1-1-1z" />
  </g>
</svg>
